<svg xmlns="http://www.w3.org/2000/svg" viewBox="0 0 32 32" class="icon__Svg-sc-1h46i2c-0 hMcLPw SiteNavButton__ButtonIcon-sc-9rve9c-2 bpFDOZ" aria-hidden="true"><g id="linear-grid"><path d="M28 17a3 3 0 0 1 2.995 2.824L31 20v8a3 3 0 0 1-2.824 2.995L28 31h-8a3 3 0 0 1-2.995-2.824L17 28v-8a3 3 0 0 1 2.824-2.995L20 17h8zm-16 0a3 3 0 0 1 2.995 2.824L15 20v8a3 3 0 0 1-2.824 2.995L12 31H4a3 3 0 0 1-2.995-2.824L1 28v-8a3 3 0 0 1 2.824-2.995L4 17h8zm16 2h-8c-.512 0-.935.387-.993.884L19 20v8c0 .512.387.935.884.993L20 29h8c.512 0 .935-.387.993-.884L29 28v-8c0-.551-.449-1-1-1zm-16 0H4c-.512 0-.935.387-.993.884L3 20v8c0 .512.387.935.884.993L4 29h8c.512 0 .935-.387.993-.884L13 28v-8c0-.551-.449-1-1-1zM28 1a3 3 0 0 1 2.995 2.824L31 4v8a3 3 0 0 1-2.824 2.995L28 15h-8a3 3 0 0 1-2.995-2.824L17 12V4a3 3 0 0 1 2.824-2.995L20 1h8zM4 1h8a3 3 0 0 1 2.995 2.824L15 4v8a3 3 0 0 1-2.824 2.995L12 15H4a3 3 0 0 1-2.995-2.824L1 12V4a3 3 0 0 1 2.824-2.995L4 1h8zm24 2h-8c-.512 0-.935.387-.993.884L19 4v8c0 .512.387.935.884.993L20 13h8c.512 0 .935-.387.993-.884L29 12V4c0-.551-.449-1-1-1zM12 3H4c-.551 0-1 .449-1 1v8c0 .551.449 1 1 1h8c.551 0 1-.449 1-1V4c0-.551-.449-1-1-1z" id="Icon"></path></g></svg>