<svg viewBox="0 0 32 32" class="icon__Svg-sc-1h46i2c-0 hMcLPw SiteNavButton__ButtonIcon-sc-9rve9c-2 bpFDOZ" aria-hidden="true"><g id="linear-router-signal"><path d="M27.989 16.394a3.005 3.005 0 0 1 3.011 3v5.7c0 1.656-1.348 3-3.011 3H4.011a3.005 3.005 0 0 1-3.011-3v-5.7c0-1.658 1.347-3 3.011-3zm0 2H4.011c-.554 0-1.004.448-1.004 1v5.729c0 .552.45 1 1.004 1h23.978c.553 0 1.003-.448 1.003-1v-5.729c0-.552-.45-1-1.003-1zm-11.15 3.78a1 1 0 1 1 1.999 0 1 1 0 0 1-2 0m4 0a1 1 0 1 1 2 0 1 1 0 0 1-2 0m4 0a1 1 0 1 1 2 0 1 1 0 0 1-2 0M16 4c-3.91 0-7.376 1.887-9.57 4.789.634.713 1.44 1.316 2.11.575C10.505 7.188 13.033 6 16 6c2.967 0 5.495 1.188 7.46 3.364.669.741 1.476.138 2.108-.575C23.376 5.887 19.908 4 16 4m0 5a6.986 6.986 0 0 0-5.582 2.794c.645.727 1.405 1.339 2.15.596.85-.85 2.098-1.39 3.432-1.39 1.333 0 2.58.54 3.432 1.39.744.743 1.504.131 2.15-.596A6.986 6.986 0 0 0 16 9" id="Icon"></path></g></svg>