<svg xmlns="http://www.w3.org/2000/svg" viewBox="0 0 32 32" class="icon__Svg-sc-1h46i2c-0 hMcLPw SiteNavButton__ButtonIcon-sc-9rve9c-2 bpFDOZ" aria-hidden="true"><g id="linear-phone"><path d="M4.082 1.703C5.659.628 6.239.657 8.475 2.702c2.116 1.935 4.122 4.695 4.975 6.382.735 1.45.503 2.067-.113 2.79a31.411 31.411 0 0 1-1.586 1.694c-.58.58-.616.79-.073 1.589.544.798 1.587 2.07 2.341 2.824a23.662 23.662 0 0 0 2.824 2.34c.798.544 1.01.509 1.59-.071a30.652 30.652 0 0 1 1.693-1.586c.724-.616 1.339-.848 2.791-.114 1.686.854 4.446 2.86 6.381 4.976 2.045 2.236 2.075 2.816.999 4.393-1.964 2.878-5.358 4.13-10.537 2.042-3.202-1.291-6.445-3.571-10.298-7.423-3.852-3.853-6.131-7.096-7.423-10.298C-.05 7.06 1.204 3.667 4.082 1.703zm1.636 1.329c-2.34 1.264-3.774 3.846-1.829 8.462 1.339 3.176 3.442 6.09 6.984 9.633 3.542 3.543 6.457 5.645 9.633 6.984 4.617 1.945 7.199.51 8.462-1.83-1.779-2.556-5.239-5.17-7.463-6.17 0 0-1.073.96-1.662 1.549-1.644 1.644-3.025.963-4.123.31-1.109-.658-2.279-1.746-3.111-2.578-.833-.833-1.921-2.003-2.58-3.113-.652-1.097-1.333-2.48.311-4.123.589-.588 1.548-1.66 1.548-1.66-.999-2.224-3.612-5.684-6.17-7.464z" id="Icon"></path></g></svg>